<svg width="77" height="108" viewBox="0 0 77 108" fill="none" xmlns="http://www.w3.org/2000/svg">
<rect x="0.0439453" y="0.0375977" width="76.8943" height="107.652" rx="3.52432" fill="white"/>
<rect x="0.0439453" y="0.0375977" width="76.8943" height="107.652" rx="3.52432" fill="white"/>
<path d="M68.9757 91.6403V91.0292H70.5308V91.6403C70.5308 92.6861 70.1362 94.4371 69.3355 96.9049L67.7224 101.923H65.9701L64.357 96.9049C63.5563 94.4371 63.1617 92.6861 63.1617 91.6403V91.0292H64.7168V91.6403C64.7168 92.1338 64.8096 92.7802 64.9837 93.5792H68.7204C68.8829 92.7684 68.9757 92.1221 68.9757 91.6403ZM66.8404 99.9837L68.0009 96.2233C68.1866 95.6357 68.3375 95.1069 68.4651 94.6133H65.2158C65.3434 95.1069 65.4943 95.6474 65.68 96.2233L66.8404 99.9837Z" fill="#222222"/>
<path d="M69.7445 83.1917C70.4329 84.032 70.596 85.2044 69.841 85.9722C69.0251 86.8021 67.7832 86.5616 67.0296 85.7953C66.2761 86.5616 65.0343 86.8021 64.2182 85.9722C63.4633 85.2044 63.6264 84.032 64.3147 83.1917C65.058 82.2843 66.0756 81.5047 67.0296 80.8287C67.9837 81.5047 69.0013 82.2843 69.7445 83.1917Z" fill="#F24E1E"/>
<path d="M8.00671 16.087V16.6981H6.45166V16.087C6.45166 15.0411 6.84622 13.2902 7.64695 10.8224L9.26002 5.80469H11.0123L12.6254 10.8224C13.4261 13.2902 13.8207 15.0411 13.8207 16.087V16.6981H12.2657V16.087C12.2657 15.5935 12.1728 14.9471 11.9987 14.1481H8.262C8.09954 14.9589 8.00671 15.6052 8.00671 16.087ZM10.142 7.74363L8.98151 11.504C8.79583 12.0916 8.64496 12.6204 8.51731 13.1139H11.7667C11.639 12.6204 11.4881 12.0798 11.3025 11.504L10.142 7.74363Z" fill="#222222"/>
<path d="M7.23837 24.5356C6.55006 23.6953 6.38687 22.5229 7.14186 21.7551C7.95786 20.9252 9.19976 21.1657 9.95326 21.932C10.7068 21.1657 11.9487 20.9252 12.7647 21.7551C13.5197 22.5229 13.3565 23.6953 12.6682 24.5356C11.9249 25.443 10.9073 26.2226 9.95326 26.8986C8.99924 26.2226 7.98164 25.443 7.23837 24.5356Z" fill="#F24E1E"/>
<path d="M27.9593 55.6654C25.3119 52.4336 24.6843 47.9241 27.5881 44.9709C30.7266 41.7791 35.5031 42.7041 38.4012 45.6514C41.2993 42.7041 46.0758 41.7791 49.2143 44.9709C52.1181 47.9241 51.4904 52.4336 48.8431 55.6654C45.9844 59.1552 42.0705 62.1537 38.4012 64.754C34.7319 62.1537 30.818 59.1552 27.9593 55.6654Z" fill="#F24E1E"/>
</svg>
