<svg width="33" height="32" viewBox="0 0 33 32" fill="none" xmlns="http://www.w3.org/2000/svg">
<path d="M28.333 6H4.33301C3.80257 6 3.29387 6.21071 2.91879 6.58579C2.54372 6.96086 2.33301 7.46957 2.33301 8V24C2.33301 24.5304 2.54372 25.0391 2.91879 25.4142C3.29387 25.7893 3.80257 26 4.33301 26H28.333C28.8634 26 29.3721 25.7893 29.7472 25.4142C30.1223 25.0391 30.333 24.5304 30.333 24V8C30.333 7.46957 30.1223 6.96086 29.7472 6.58579C29.3721 6.21071 28.8634 6 28.333 6ZM26.133 8L16.333 14.78L6.53301 8H26.133ZM4.33301 24V8.91L15.763 16.82C15.9304 16.9361 16.1293 16.9984 16.333 16.9984C16.5367 16.9984 16.7356 16.9361 16.903 16.82L28.333 8.91V24H4.33301Z" fill="black"/>
</svg>
